G04 #@! TF.GenerationSoftware,KiCad,Pcbnew,(5.1.12)-1*
G04 #@! TF.CreationDate,2022-04-21T18:06:29-03:00*
G04 #@! TF.ProjectId,micro3D,6d696372-6f33-4442-9e6b-696361645f70,rev?*
G04 #@! TF.SameCoordinates,Original*
G04 #@! TF.FileFunction,Soldermask,Top*
G04 #@! TF.FilePolarity,Negative*
%FSLAX46Y46*%
G04 Gerber Fmt 4.6, Leading zero omitted, Abs format (unit mm)*
G04 Created by KiCad (PCBNEW (5.1.12)-1) date 2022-04-21 18:06:29*
%MOMM*%
%LPD*%
G01*
G04 APERTURE LIST*
%ADD10R,1.600000X1.600000*%
%ADD11O,1.600000X1.600000*%
%ADD12R,2.600000X2.600000*%
%ADD13C,2.600000*%
%ADD14C,6.200000*%
%ADD15R,1.524000X1.524000*%
%ADD16C,1.524000*%
%ADD17O,1.700000X1.700000*%
%ADD18R,1.700000X1.700000*%
%ADD19C,1.600000*%
G04 APERTURE END LIST*
D10*
X109220000Y-102870000D03*
D11*
X121920000Y-120650000D03*
X109220000Y-105410000D03*
X121920000Y-118110000D03*
X109220000Y-107950000D03*
X121920000Y-115570000D03*
X109220000Y-110490000D03*
X121920000Y-113030000D03*
X109220000Y-113030000D03*
X121920000Y-110490000D03*
X109220000Y-115570000D03*
X121920000Y-107950000D03*
X109220000Y-118110000D03*
X121920000Y-105410000D03*
X109220000Y-120650000D03*
X121920000Y-102870000D03*
D10*
X147320000Y-121920000D03*
D11*
X132080000Y-88900000D03*
X147320000Y-119380000D03*
X132080000Y-91440000D03*
X147320000Y-116840000D03*
X132080000Y-93980000D03*
X147320000Y-114300000D03*
X132080000Y-96520000D03*
X147320000Y-111760000D03*
X132080000Y-99060000D03*
X147320000Y-109220000D03*
X132080000Y-101600000D03*
X147320000Y-106680000D03*
X132080000Y-104140000D03*
X147320000Y-104140000D03*
X132080000Y-106680000D03*
X147320000Y-101600000D03*
X132080000Y-109220000D03*
X147320000Y-99060000D03*
X132080000Y-111760000D03*
X147320000Y-96520000D03*
X132080000Y-114300000D03*
X147320000Y-93980000D03*
X132080000Y-116840000D03*
X147320000Y-91440000D03*
X132080000Y-119380000D03*
X147320000Y-88900000D03*
X132080000Y-121920000D03*
X147320000Y-86360000D03*
X132080000Y-86360000D03*
D12*
X155520000Y-92750000D03*
D13*
X155520000Y-87670000D03*
X155550000Y-108420000D03*
D12*
X155550000Y-113500000D03*
D14*
X157110000Y-80910000D03*
X99110000Y-80910000D03*
X99110000Y-129910000D03*
X157110000Y-129910000D03*
D15*
X152240000Y-128640000D03*
D16*
X149700000Y-128640000D03*
X147160000Y-128640000D03*
X144620000Y-128640000D03*
X142080000Y-128640000D03*
X139540000Y-128640000D03*
X152240000Y-131180000D03*
X149700000Y-131180000D03*
X147160000Y-131180000D03*
X144620000Y-131180000D03*
X142080000Y-131180000D03*
X139540000Y-131180000D03*
X137000000Y-128640000D03*
X137000000Y-131180000D03*
X134460000Y-128640000D03*
X131920000Y-128640000D03*
X129380000Y-128640000D03*
X126840000Y-128640000D03*
X124300000Y-128640000D03*
X121760000Y-128640000D03*
X134460000Y-131180000D03*
X131920000Y-131180000D03*
X129380000Y-131180000D03*
X126840000Y-131180000D03*
X124300000Y-131180000D03*
X121760000Y-131180000D03*
X119220000Y-128640000D03*
X119220000Y-131180000D03*
X116680000Y-128640000D03*
X114140000Y-128640000D03*
X111600000Y-128640000D03*
X109060000Y-128640000D03*
X106520000Y-128640000D03*
X103980000Y-128640000D03*
X116680000Y-131180000D03*
X114140000Y-131180000D03*
X111600000Y-131180000D03*
X109060000Y-131180000D03*
X106520000Y-131180000D03*
X103980000Y-131180000D03*
D17*
X119420000Y-96520000D03*
X119420000Y-93980000D03*
X119420000Y-91440000D03*
X119420000Y-88900000D03*
X119420000Y-86360000D03*
D18*
X119420000Y-83820000D03*
X109220000Y-83820000D03*
D17*
X109220000Y-86360000D03*
X109220000Y-88900000D03*
X109220000Y-91440000D03*
X109220000Y-93980000D03*
X109220000Y-96520000D03*
D19*
X155550000Y-100760000D03*
X153050000Y-100760000D03*
X153480000Y-120330000D03*
X155980000Y-120330000D03*
D18*
X99060000Y-100330000D03*
D17*
X99060000Y-97790000D03*
X99060000Y-95250000D03*
X99060000Y-92710000D03*
X99060000Y-90170000D03*
D18*
X99060000Y-116840000D03*
D17*
X99060000Y-114300000D03*
X99060000Y-111760000D03*
X99060000Y-109220000D03*
M02*
