M48
; DRILL file {KiCad (5.1.12)-1} date 04/21/22 18:06:40
; FORMAT={-:-/ absolute / metric / decimal}
; #@! TF.CreationDate,2022-04-21T18:06:40-03:00
; #@! TF.GenerationSoftware,Kicad,Pcbnew,(5.1.12)-1
; #@! TF.FileFunction,Plated,1,2,PTH
FMAT,2
METRIC
T1C0.400
T2C0.800
T3C1.000
T4C1.016
T5C1.300
T6C2.750
%
G90
G05
T1
X98.6Y-103.9
X98.9Y-121.7
X103.8Y-124.9
X112.522Y-90.424
X116.5Y-116.3
X116.9Y-99.0
X119.8Y-99.0
X122.936Y-92.202
X128.9Y-79.8
X136.2Y-97.3
X136.2Y-105.3
X137.0Y-110.3
X137.6Y-83.2
X137.8Y-87.7
X148.9Y-82.3
X149.5Y-100.6
X151.6Y-85.8
X152.3Y-119.1
X152.8Y-105.5
T2
X109.22Y-102.87
X109.22Y-105.41
X109.22Y-107.95
X109.22Y-110.49
X109.22Y-113.03
X109.22Y-115.57
X109.22Y-118.11
X109.22Y-120.65
X113.9Y-113.4
X115.7Y-89.5
X121.92Y-102.87
X121.92Y-105.41
X121.92Y-107.95
X121.92Y-110.49
X121.92Y-113.03
X121.92Y-115.57
X121.92Y-118.11
X121.92Y-120.65
X153.05Y-100.76
X153.2Y-123.6
X153.48Y-120.33
X155.55Y-100.76
X155.98Y-120.33
T3
X99.06Y-90.17
X99.06Y-92.71
X99.06Y-95.25
X99.06Y-97.79
X99.06Y-100.33
X99.06Y-109.22
X99.06Y-111.76
X99.06Y-114.3
X99.06Y-116.84
X109.22Y-83.82
X109.22Y-86.36
X109.22Y-88.9
X109.22Y-91.44
X109.22Y-93.98
X109.22Y-96.52
X119.42Y-83.82
X119.42Y-86.36
X119.42Y-88.9
X119.42Y-91.44
X119.42Y-93.98
X119.42Y-96.52
X132.08Y-86.36
X132.08Y-88.9
X132.08Y-91.44
X132.08Y-93.98
X132.08Y-96.52
X132.08Y-99.06
X132.08Y-101.6
X132.08Y-104.14
X132.08Y-106.68
X132.08Y-109.22
X132.08Y-111.76
X132.08Y-114.3
X132.08Y-116.84
X132.08Y-119.38
X132.08Y-121.92
X147.32Y-86.36
X147.32Y-88.9
X147.32Y-91.44
X147.32Y-93.98
X147.32Y-96.52
X147.32Y-99.06
X147.32Y-101.6
X147.32Y-104.14
X147.32Y-106.68
X147.32Y-109.22
X147.32Y-111.76
X147.32Y-114.3
X147.32Y-116.84
X147.32Y-119.38
X147.32Y-121.92
T4
X103.98Y-128.64
X103.98Y-131.18
X106.52Y-128.64
X106.52Y-131.18
X109.06Y-128.64
X109.06Y-131.18
X111.6Y-128.64
X111.6Y-131.18
X114.14Y-128.64
X114.14Y-131.18
X116.68Y-128.64
X116.68Y-131.18
X119.22Y-128.64
X119.22Y-131.18
X121.76Y-128.64
X121.76Y-131.18
X124.3Y-128.64
X124.3Y-131.18
X126.84Y-128.64
X126.84Y-131.18
X129.38Y-128.64
X129.38Y-131.18
X131.92Y-128.64
X131.92Y-131.18
X134.46Y-128.64
X134.46Y-131.18
X137.0Y-128.64
X137.0Y-131.18
X139.54Y-128.64
X139.54Y-131.18
X142.08Y-128.64
X142.08Y-131.18
X144.62Y-128.64
X144.62Y-131.18
X147.16Y-128.64
X147.16Y-131.18
X149.7Y-128.64
X149.7Y-131.18
X152.24Y-128.64
X152.24Y-131.18
T5
X155.52Y-87.67
X155.52Y-92.75
X155.55Y-108.42
X155.55Y-113.5
T6
X99.11Y-80.91
X99.11Y-129.91
X157.11Y-80.91
X157.11Y-129.91
T0
M30
