%FSLAX45Y45*%
G04 Gerber Fmt 4.5, Leading zero omitted, Abs format (unit mm)*
G04 Created by KiCad (PCBNEW (5.1.12)-1) date 2022-04-21 18:06:42*
%MOMM*%
%LPD*%
G01*
G04 APERTURE LIST*
%TA.AperFunction,Profile*%
%ADD10C,0.050000*%
%TD*%
%ADD11C,0.200000*%
%ADD12C,0.300000*%
G04 APERTURE END LIST*
D10*
X16100000Y-7740000D02*
X9480000Y-7740000D01*
X16100000Y-13330000D02*
X16100000Y-7740000D01*
X9480000Y-13340000D02*
X16100000Y-13330000D01*
X9480000Y-7740000D02*
X9480000Y-13340000D01*
D11*
D12*
X9763928Y-13808214D02*
X9763928Y-13508214D01*
X9835357Y-13508214D01*
X9878214Y-13522500D01*
X9906786Y-13551071D01*
X9921071Y-13579643D01*
X9935357Y-13636786D01*
X9935357Y-13679643D01*
X9921071Y-13736786D01*
X9906786Y-13765357D01*
X9878214Y-13793929D01*
X9835357Y-13808214D01*
X9763928Y-13808214D01*
X10063928Y-13808214D02*
X10063928Y-13608214D01*
X10063928Y-13665357D02*
X10078214Y-13636786D01*
X10092500Y-13622500D01*
X10121071Y-13608214D01*
X10149643Y-13608214D01*
X10249643Y-13808214D02*
X10249643Y-13608214D01*
X10249643Y-13508214D02*
X10235357Y-13522500D01*
X10249643Y-13536786D01*
X10263928Y-13522500D01*
X10249643Y-13508214D01*
X10249643Y-13536786D01*
X10435357Y-13808214D02*
X10406786Y-13793929D01*
X10392500Y-13765357D01*
X10392500Y-13508214D01*
X10592500Y-13808214D02*
X10563928Y-13793929D01*
X10549643Y-13765357D01*
X10549643Y-13508214D01*
X10935357Y-13808214D02*
X10935357Y-13508214D01*
X11035357Y-13722500D01*
X11135357Y-13508214D01*
X11135357Y-13808214D01*
X11406786Y-13808214D02*
X11406786Y-13651071D01*
X11392500Y-13622500D01*
X11363928Y-13608214D01*
X11306786Y-13608214D01*
X11278214Y-13622500D01*
X11406786Y-13793929D02*
X11378214Y-13808214D01*
X11306786Y-13808214D01*
X11278214Y-13793929D01*
X11263928Y-13765357D01*
X11263928Y-13736786D01*
X11278214Y-13708214D01*
X11306786Y-13693929D01*
X11378214Y-13693929D01*
X11406786Y-13679643D01*
X11549643Y-13608214D02*
X11549643Y-13908214D01*
X11549643Y-13622500D02*
X11578214Y-13608214D01*
X11635357Y-13608214D01*
X11663928Y-13622500D01*
X11678214Y-13636786D01*
X11692500Y-13665357D01*
X11692500Y-13751071D01*
X11678214Y-13779643D01*
X11663928Y-13793929D01*
X11635357Y-13808214D01*
X11578214Y-13808214D01*
X11549643Y-13793929D01*
X11821071Y-13779643D02*
X11835357Y-13793929D01*
X11821071Y-13808214D01*
X11806786Y-13793929D01*
X11821071Y-13779643D01*
X11821071Y-13808214D01*
X11821071Y-13622500D02*
X11835357Y-13636786D01*
X11821071Y-13651071D01*
X11806786Y-13636786D01*
X11821071Y-13622500D01*
X11821071Y-13651071D01*
M02*
